<svg width="24" height="24" viewBox="0 0 24 24" fill="none" xmlns="http://www.w3.org/2000/svg">
<path d="M12 20.9C11.78 20.9 11.55 20.87 11.38 20.81C8.48 19.82 2 15.69 2 8.67999C2 7.27999 2.51 6.00002 3.36 5.02002" stroke="#6C7278" stroke-width="1.5" stroke-linecap="round" stroke-linejoin="round"/>
<path d="M21.4901 12C21.8101 10.98 22.0001 9.88 22.0001 8.69C22.0001 5.6 19.5101 3.09998 16.4401 3.09998C14.6201 3.09998 13.0101 3.98003 12.0001 5.34003C10.9901 3.98003 9.37006 3.09998 7.56006 3.09998" stroke="#6C7278" stroke-width="1.5" stroke-linecap="round" stroke-linejoin="round"/>
<path d="M17.74 21C19.5073 21 20.94 19.5673 20.94 17.8C20.94 16.0327 19.5073 14.6 17.74 14.6C15.9727 14.6 14.54 16.0327 14.54 17.8C14.54 19.5673 15.9727 21 17.74 21Z" stroke="#6C7278" stroke-width="1.5" stroke-linecap="round" stroke-linejoin="round"/>
<path d="M21.54 21.6L20.54 20.6" stroke="#6C7278" stroke-width="1.5" stroke-linecap="round" stroke-linejoin="round"/>
</svg>
