<svg width="24" height="24" viewBox="0 0 24 24" fill="none" xmlns="http://www.w3.org/2000/svg">
<path d="M2 11.56V13.4301C2 16.4301 4 18.4301 7 18.4301H11L15.45 21.39C16.11 21.83 17 21.3601 17 20.5601V18.4301C20 18.4301 22 16.4301 22 13.4301V7.42999C22 4.42999 20 2.42999 17 2.42999H7C4 2.42999 2 4.42999 2 7.42999" stroke="#6C7278" stroke-width="1.5" stroke-miterlimit="10" stroke-linecap="round" stroke-linejoin="round"/>
<path d="M12.0001 11.36V11.15C12.0001 10.47 12.4201 10.11 12.8401 9.82001C13.2501 9.54001 13.66 9.18002 13.66 8.52002C13.66 7.60002 12.9201 6.85999 12.0001 6.85999C11.0801 6.85999 10.3401 7.60002 10.3401 8.52002" stroke="#6C7278" stroke-width="1.5" stroke-linecap="round" stroke-linejoin="round"/>
<path d="M11.9955 13.75H12.0045" stroke="#6C7278" stroke-width="1.5" stroke-linecap="round" stroke-linejoin="round"/>
</svg>
